REM DIRINDEX 1\5,1\2\6,1\2\7,1\3\8,1\3\9,1\4\10,1\4\11,1\4\12
REM DIRNAME folder01,folder02,folder03,folder04,folder05,folder06,folder07,folder08,folder09,folder10,folder11,folder12
TITLE ""
FILE "JE_DB3000_5th_5C_17.mp3" MP3
  TRACK 01 AUDIO
    TITLE "0:"
    INDEX 01 00:00:00
  TRACK 02 AUDIO
    TITLE "6:cjc026_02533"
    INDEX 01 00:00:05
  TRACK 03 AUDIO
    TITLE "0:"
    INDEX 01 00:00:64
  TRACK 04 AUDIO
    TITLE "7:cjc026_02534"
    INDEX 01 00:01:15
  TRACK 05 AUDIO
    TITLE "0:"
    INDEX 01 00:02:16
  TRACK 06 AUDIO
    TITLE "6:cjc026_02535"
    INDEX 01 00:02:43
  TRACK 07 AUDIO
    TITLE "0:"
    INDEX 01 00:03:33
  TRACK 08 AUDIO
    TITLE "7:cjc026_02536"
    INDEX 01 00:03:61
  TRACK 09 AUDIO
    TITLE "0:"
    INDEX 01 00:04:56
  TRACK 10 AUDIO
    TITLE "6:cjc026_02537"
    INDEX 01 00:05:07
  TRACK 11 AUDIO
    TITLE "0:"
    INDEX 01 00:06:04
  TRACK 12 AUDIO
    TITLE "7:cjc026_02538"
    INDEX 01 00:06:30
  TRACK 13 AUDIO
    TITLE "0:"
    INDEX 01 00:07:27
  TRACK 14 AUDIO
    TITLE "6:cjc026_02539"
    INDEX 01 00:07:54
  TRACK 15 AUDIO
    TITLE "0:"
    INDEX 01 00:08:52
  TRACK 16 AUDIO
    TITLE "7:cjc026_02540"
    INDEX 01 00:09:00
  TRACK 17 AUDIO
    TITLE "0:"
    INDEX 01 00:10:04
  TRACK 18 AUDIO
    TITLE "6:cjc026_02541"
    INDEX 01 00:10:27
  TRACK 19 AUDIO
    TITLE "0:"
    INDEX 01 00:11:29
  TRACK 20 AUDIO
    TITLE "7:cjc026_02542"
    INDEX 01 00:11:54
  TRACK 21 AUDIO
    TITLE "0:"
    INDEX 01 00:12:58
  TRACK 22 AUDIO
    TITLE "6:cjc026_02543"
    INDEX 01 00:13:08
  TRACK 23 AUDIO
    TITLE "0:"
    INDEX 01 00:14:02
  TRACK 24 AUDIO
    TITLE "7:cjc026_02544"
    INDEX 01 00:14:29
  TRACK 25 AUDIO
    TITLE "0:"
    INDEX 01 00:15:23
  TRACK 26 AUDIO
    TITLE "6:cjc026_02545"
    INDEX 01 00:15:46
  TRACK 27 AUDIO
    TITLE "0:"
    INDEX 01 00:16:71
  TRACK 28 AUDIO
    TITLE "7:cjc026_02546"
    INDEX 01 00:17:20
  TRACK 29 AUDIO
    TITLE "0:"
    INDEX 01 00:18:19
  TRACK 30 AUDIO
    TITLE "6:cjc026_02547"
    INDEX 01 00:18:44
  TRACK 31 AUDIO
    TITLE "0:"
    INDEX 01 00:19:50
  TRACK 32 AUDIO
    TITLE "7:cjc026_02548"
    INDEX 01 00:20:02
  TRACK 33 AUDIO
    TITLE "0:"
    INDEX 01 00:21:06
  TRACK 34 AUDIO
    TITLE "6:cjc026_02549"
    INDEX 01 00:21:33
  TRACK 35 AUDIO
    TITLE "0:"
    INDEX 01 00:22:44
  TRACK 36 AUDIO
    TITLE "7:cjc026_02550"
    INDEX 01 00:22:70
  TRACK 37 AUDIO
    TITLE "0:"
    INDEX 01 00:24:06
  TRACK 38 AUDIO
    TITLE "6:cjc026_02551"
    INDEX 01 00:24:33
  TRACK 39 AUDIO
    TITLE "0:"
    INDEX 01 00:25:33
  TRACK 40 AUDIO
    TITLE "7:cjc026_02552"
    INDEX 01 00:25:58
  TRACK 41 AUDIO
    TITLE "0:"
    INDEX 01 00:26:46
  TRACK 42 AUDIO
    TITLE "6:cjc026_02553"
    INDEX 01 00:26:73
  TRACK 43 AUDIO
    TITLE "0:"
    INDEX 01 00:27:59
  TRACK 44 AUDIO
    TITLE "7:cjc026_02554"
    INDEX 01 00:28:10
  TRACK 45 AUDIO
    TITLE "0:"
    INDEX 01 00:28:70
  TRACK 46 AUDIO
    TITLE "6:cjc026_02555"
    INDEX 01 00:29:21
  TRACK 47 AUDIO
    TITLE "0:"
    INDEX 01 00:30:20
  TRACK 48 AUDIO
    TITLE "7:cjc026_02556"
    INDEX 01 00:30:46
  TRACK 49 AUDIO
    TITLE "0:"
    INDEX 01 00:31:43
  TRACK 50 AUDIO
    TITLE "6:cjc026_02557"
    INDEX 01 00:31:69
  TRACK 51 AUDIO
    TITLE "0:"
    INDEX 01 00:32:62
  TRACK 52 AUDIO
    TITLE "7:cjc026_02558"
    INDEX 01 00:33:13
  TRACK 53 AUDIO
    TITLE "0:"
    INDEX 01 00:34:06
  TRACK 54 AUDIO
    TITLE "6:cjc026_02559"
    INDEX 01 00:34:36
  TRACK 55 AUDIO
    TITLE "0:"
    INDEX 01 00:36:13
  TRACK 56 AUDIO
    TITLE "7:cjc026_02560"
    INDEX 01 00:36:36
  TRACK 57 AUDIO
    TITLE "0:"
    INDEX 01 00:37:46
  TRACK 58 AUDIO
    TITLE "6:cjc026_02561"
    INDEX 01 00:37:69
  TRACK 59 AUDIO
    TITLE "0:"
    INDEX 01 00:38:73
  TRACK 60 AUDIO
    TITLE "7:cjc026_02562"
    INDEX 01 00:39:23
  TRACK 61 AUDIO
    TITLE "0:"
    INDEX 01 00:40:36
